<?xml version="1.0" encoding="UTF-8"?>
<!DOCTYPE svg PUBLIC "-//W3C//DTD SVG 1.1//EN" "http://www.w3.org/Graphics/SVG/1.1/DTD/svg11.dtd">
<svg xmlns="http://www.w3.org/2000/svg" version="1.1" width="489px" height="478px" style="shape-rendering:geometricPrecision; text-rendering:geometricPrecision; image-rendering:optimizeQuality; fill-rule:evenodd; clip-rule:evenodd" xmlns:xlink="http://www.w3.org/1999/xlink">
<g><path style="opacity:1" fill="#242424" d="M -0.5,-0.5 C 162.5,-0.5 325.5,-0.5 488.5,-0.5C 488.5,158.833 488.5,318.167 488.5,477.5C 325.5,477.5 162.5,477.5 -0.5,477.5C -0.5,318.167 -0.5,158.833 -0.5,-0.5 Z"/></g>
<g><path style="opacity:1" fill="#fefefe" d="M 223.5,13.5 C 307.61,9.98273 375.11,41.3161 426,107.5C 475.172,181.823 480.839,259.49 443,340.5C 396.298,423.286 325.131,463.786 229.5,462C 143.343,454.452 80.1767,412.619 40,336.5C 8.97677,267.532 10.3101,199.198 44,131.5C 84.2002,62.4722 144.034,23.1389 223.5,13.5 Z"/></g>
<g><path style="opacity:1" fill="#f6f6f6" d="M 373.5,62.5 C 432.878,108.633 462.044,170.3 461,247.5C 459.559,231.936 457.726,216.436 455.5,201C 456.923,199.588 456.756,198.421 455,197.5C 454.667,194.833 454.333,192.167 454,189.5C 451.29,182.727 449.124,175.727 447.5,168.5C 443.846,163.149 441.179,157.649 439.5,152C 439.645,151.228 439.978,150.561 440.5,150C 435.809,141.454 430.975,132.954 426,124.5C 425.085,123.672 424.419,122.672 424,121.5C 423.667,121.833 423.333,122.167 423,122.5C 422.667,121.167 422.333,119.833 422,118.5C 417.386,113.763 412.886,108.597 408.5,103C 380.018,68.8211 342.352,45.4878 295.5,33C 205.59,15.8209 131.756,41.6542 74,110.5C 32.9345,168.315 20.7678,231.315 37.5,299.5C 41.702,311.605 46.202,323.605 51,335.5C 55.4666,342.101 59.1333,349.101 62,356.5C 62.3333,355.833 62.6667,355.167 63,354.5C 63.5609,357.29 64.8942,359.623 67,361.5C 68.5621,363.957 69.5621,366.624 70,369.5C 70.3333,369.167 70.6667,368.833 71,368.5C 73.696,369.672 75.3626,371.672 76,374.5C 85.8263,386.993 96.9929,398.16 109.5,408C 109.167,408.333 108.833,408.667 108.5,409C 117.061,414.038 125.394,419.538 133.5,425.5C 132.635,426.583 131.635,426.749 130.5,426C 88.6952,400.231 58.1952,364.731 39,319.5C 36.3181,312.291 34.1514,304.957 32.5,297.5C 33.8249,293.961 33.1582,290.794 30.5,288C 30.6819,285.347 31.0153,282.68 31.5,280C 30.9318,277.316 29.9318,274.816 28.5,272.5C 20.3615,196.423 44.0282,131.923 99.5,79C 161.694,26.7955 232.36,11.7955 311.5,34C 335.384,42.2878 355.551,52.4544 372,64.5C 372.717,63.9558 373.217,63.2891 373.5,62.5 Z"/></g>
<g><path style="opacity:1" fill="#f0f0f0" d="M 373.5,62.5 C 373.217,63.2891 372.717,63.9558 372,64.5C 355.551,52.4544 335.384,42.2878 311.5,34C 232.36,11.7955 161.694,26.7955 99.5,79C 44.0282,131.923 20.3615,196.423 28.5,272.5C 29.9318,274.816 30.9318,277.316 31.5,280C 31.0153,282.68 30.6819,285.347 30.5,288C 33.1582,290.794 33.8249,293.961 32.5,297.5C 10.9126,210.091 32.2459,135.758 96.5,74.5C 159.709,22.4516 231.042,7.61822 310.5,30C 333.251,37.707 354.251,48.5403 373.5,62.5 Z"/></g>
<g><path style="opacity:1" fill="#fbb9b2" d="M 230.5,125.5 C 230.916,130.493 231.249,135.493 231.5,140.5C 229.754,135.552 229.421,130.552 230.5,125.5 Z"/></g>
<g><path style="opacity:1" fill="#f25e53" d="M 230.5,125.5 C 231.5,125.5 232.5,125.5 233.5,125.5C 235.08,141.144 236.414,156.81 237.5,172.5C 237.335,175.85 237.502,179.183 238,182.5C 238.278,183.416 238.778,184.082 239.5,184.5C 240.569,199.187 241.902,213.854 243.5,228.5C 242.5,228.5 241.5,228.5 240.5,228.5C 240.784,226.585 240.451,224.919 239.5,223.5C 237.56,195.765 234.893,168.099 231.5,140.5C 231.249,135.493 230.916,130.493 230.5,125.5 Z"/></g>
<g><path style="opacity:1" fill="#f08377" d="M 237.5,172.5 C 238.482,176.316 239.149,180.316 239.5,184.5C 238.778,184.082 238.278,183.416 238,182.5C 237.502,179.183 237.335,175.85 237.5,172.5 Z"/></g>
<g><path style="opacity:1" fill="#f3f3f3" d="M 239.5,223.5 C 240.451,224.919 240.784,226.585 240.5,228.5C 237.167,229.833 234.833,232.167 233.5,235.5C 217.593,283.962 201.927,332.629 186.5,381.5C 186.608,382.442 186.941,383.275 187.5,384C 186.692,384.308 186.025,384.808 185.5,385.5C 185.846,386.696 186.346,386.696 187,385.5C 187.543,387.631 188.376,389.631 189.5,391.5C 190.107,391.376 190.44,391.043 190.5,390.5C 192.398,391.096 194.065,391.096 195.5,390.5C 199.645,387.854 202.479,384.187 204,379.5C 206.45,369.804 209.616,360.804 213.5,352.5C 210.294,350.389 210.294,347.889 213.5,345C 211.099,344.195 211.266,343.362 214,342.5C 214.684,341.216 214.517,340.049 213.5,339C 214.938,336.405 216.271,333.738 217.5,331C 216.584,330.722 215.918,330.222 215.5,329.5C 215.5,329.167 215.5,328.833 215.5,328.5C 216.75,328.423 217.583,327.756 218,326.5C 218.333,327.5 218.667,328.5 219,329.5C 219.545,326.137 220.878,323.137 223,320.5C 229.843,299.322 236.509,278.656 243,258.5C 245.5,252.667 249.667,248.5 255.5,246C 255.167,245.667 254.833,245.333 254.5,245C 259.731,241.976 264.231,238.143 268,233.5C 268.414,233.957 268.914,234.291 269.5,234.5C 273.666,231.583 277.999,228.916 282.5,226.5C 283.863,225.802 285.029,225.802 286,226.5C 291.923,221.785 298.423,217.951 305.5,215C 306.833,214.333 306.833,213.667 305.5,213C 307.447,213.536 309.447,213.202 311.5,212C 311.167,211.667 310.833,211.333 310.5,211C 317.478,208.781 324.145,205.781 330.5,202C 332.5,200.667 334.167,199 335.5,197C 337.78,196.788 339.78,195.955 341.5,194.5C 342.086,194.709 342.586,195.043 343,195.5C 346.928,192.982 348.428,189.649 347.5,185.5C 349.305,184.763 350.971,183.763 352.5,182.5C 351.411,179.41 349.411,177.41 346.5,176.5C 344.677,175.773 342.843,175.439 341,175.5C 340.641,178.544 339.974,178.878 339,176.5C 338.558,178.679 337.558,179.345 336,178.5C 331.226,181.638 326.06,183.804 320.5,185C 320.833,185.333 321.167,185.667 321.5,186C 316.879,187.644 312.546,189.811 308.5,192.5C 307.754,193.736 307.421,195.07 307.5,196.5C 298.133,199.546 289.633,204.213 282,210.5C 281.667,210.167 281.333,209.833 281,209.5C 276.363,213.236 271.196,216.07 265.5,218C 264.167,218.667 264.167,219.333 265.5,220C 260.972,221.78 256.972,223.614 253.5,225.5C 253.739,223.533 253.406,221.699 252.5,220C 279.925,203.573 307.592,187.573 335.5,172C 341.37,169.182 347.37,168.849 353.5,171C 355.833,172.243 356.5,173.909 355.5,176C 357.095,175.383 358.428,175.716 359.5,177C 358.553,179.478 358.553,181.812 359.5,184C 358.107,185.171 357.273,186.671 357,188.5C 350.158,194.434 343.325,199.6 336.5,204C 310.852,218.492 285.185,232.992 259.5,247.5C 255.894,249.603 252.727,252.269 250,255.5C 245.807,266.412 241.807,277.412 238,288.5C 228.438,319.814 218.772,350.148 209,379.5C 208.355,380.646 207.522,381.646 206.5,382.5C 205.903,392.902 200.236,397.402 189.5,396C 187.473,393.973 185.473,391.973 183.5,390C 183.612,387.165 183.612,384.332 183.5,381.5C 198.772,333.522 214.272,285.188 230,236.5C 231.353,235.315 232.52,233.981 233.5,232.5C 232.835,230.899 232.501,229.399 232.5,228C 233.742,227.689 234.742,228.189 235.5,229.5C 235.911,228.738 236.077,227.738 236,226.5C 237,226.833 238,227.167 239,227.5C 239.49,226.207 239.657,224.873 239.5,223.5 Z"/></g>
<g><path style="opacity:1" fill="#d9d9d9" d="M 346.5,176.5 C 314.782,195.53 282.782,214.197 250.5,232.5C 250.167,231.833 249.833,231.167 249.5,230.5C 251.13,228.974 251.963,226.974 252,224.5C 252.383,225.056 252.883,225.389 253.5,225.5C 256.972,223.614 260.972,221.78 265.5,220C 264.167,219.333 264.167,218.667 265.5,218C 271.196,216.07 276.363,213.236 281,209.5C 281.333,209.833 281.667,210.167 282,210.5C 289.633,204.213 298.133,199.546 307.5,196.5C 307.421,195.07 307.754,193.736 308.5,192.5C 312.546,189.811 316.879,187.644 321.5,186C 321.167,185.667 320.833,185.333 320.5,185C 326.06,183.804 331.226,181.638 336,178.5C 337.558,179.345 338.558,178.679 339,176.5C 339.974,178.878 340.641,178.544 341,175.5C 342.843,175.439 344.677,175.773 346.5,176.5 Z"/></g>
<g><path style="opacity:1" fill="#dedede" d="M 347.5,185.5 C 348.428,189.649 346.928,192.982 343,195.5C 342.586,195.043 342.086,194.709 341.5,194.5C 339.78,195.955 337.78,196.788 335.5,197C 334.167,199 332.5,200.667 330.5,202C 324.145,205.781 317.478,208.781 310.5,211C 310.833,211.333 311.167,211.667 311.5,212C 309.447,213.202 307.447,213.536 305.5,213C 306.833,213.667 306.833,214.333 305.5,215C 298.423,217.951 291.923,221.785 286,226.5C 285.029,225.802 283.863,225.802 282.5,226.5C 277.999,228.916 273.666,231.583 269.5,234.5C 268.914,234.291 268.414,233.957 268,233.5C 264.231,238.143 259.731,241.976 254.5,245C 254.833,245.333 255.167,245.667 255.5,246C 249.667,248.5 245.5,252.667 243,258.5C 236.509,278.656 229.843,299.322 223,320.5C 220.878,323.137 219.545,326.137 219,329.5C 218.667,328.5 218.333,327.5 218,326.5C 217.583,327.756 216.75,328.423 215.5,328.5C 223.961,301.784 232.628,275.117 241.5,248.5C 243.772,247.515 246.105,246.681 248.5,246C 250.5,242.667 253.167,240 256.5,238C 286.861,220.488 317.194,202.988 347.5,185.5 Z"/></g>
<g><path style="opacity:1" fill="#f5f6f5" d="M 249.5,233.5 C 251.5,242.833 247.833,246.5 238.5,244.5C 233.487,237.852 234.82,233.186 242.5,230.5C 245.218,230.695 247.551,231.695 249.5,233.5 Z"/></g>
<g><path style="opacity:1" fill="#322e2e" d="M 240.5,228.5 C 241.5,228.5 242.5,228.5 243.5,228.5C 245.579,228.971 247.579,229.637 249.5,230.5C 249.833,231.167 250.167,231.833 250.5,232.5C 249.833,232.5 249.5,232.833 249.5,233.5C 247.551,231.695 245.218,230.695 242.5,230.5C 234.82,233.186 233.487,237.852 238.5,244.5C 237.833,245.5 237.167,246.5 236.5,247.5C 234.702,243.76 233.702,239.76 233.5,235.5C 234.833,232.167 237.167,229.833 240.5,228.5 Z"/></g>
<g><path style="opacity:1" fill="#e8e8e8" d="M 233.5,235.5 C 233.702,239.76 234.702,243.76 236.5,247.5C 220.756,295.066 205.422,342.732 190.5,390.5C 190.44,391.043 190.107,391.376 189.5,391.5C 188.376,389.631 187.543,387.631 187,385.5C 186.346,386.696 185.846,386.696 185.5,385.5C 186.025,384.808 186.692,384.308 187.5,384C 186.941,383.275 186.608,382.442 186.5,381.5C 201.927,332.629 217.593,283.962 233.5,235.5 Z"/></g>
<g><path style="opacity:1" fill="#0f0f0f" d="M 346.5,176.5 C 349.411,177.41 351.411,179.41 352.5,182.5C 350.971,183.763 349.305,184.763 347.5,185.5C 317.194,202.988 286.861,220.488 256.5,238C 253.167,240 250.5,242.667 248.5,246C 246.105,246.681 243.772,247.515 241.5,248.5C 232.628,275.117 223.961,301.784 215.5,328.5C 215.5,328.833 215.5,329.167 215.5,329.5C 208.459,349.624 201.793,369.957 195.5,390.5C 194.065,391.096 192.398,391.096 190.5,390.5C 205.422,342.732 220.756,295.066 236.5,247.5C 237.167,246.5 237.833,245.5 238.5,244.5C 247.833,246.5 251.5,242.833 249.5,233.5C 249.5,232.833 249.833,232.5 250.5,232.5C 282.782,214.197 314.782,195.53 346.5,176.5 Z"/></g>
<g><path style="opacity:1" fill="#dfdfdf" d="M 215.5,329.5 C 215.918,330.222 216.584,330.722 217.5,331C 216.271,333.738 214.938,336.405 213.5,339C 214.517,340.049 214.684,341.216 214,342.5C 211.266,343.362 211.099,344.195 213.5,345C 210.294,347.889 210.294,350.389 213.5,352.5C 209.616,360.804 206.45,369.804 204,379.5C 202.479,384.187 199.645,387.854 195.5,390.5C 201.793,369.957 208.459,349.624 215.5,329.5 Z"/></g>
</svg>
